<svg
    version="1.0"
    xmlns="http://www.w3.org/2000/svg"
    viewBox="20 220 990 600"
    preserveAspectRatio="xMidYMid meet"
>

<g transform="translate(0.000000,1024.000000) scale(0.100000,-0.100000)"
fill="#8C2F39" stroke="none">
<path d="M5855 7924 c-203 -85 -618 -163 -1359 -254 -970 -119 -1383 -156
-1630 -147 -168 6 -196 12 -309 65 -60 27 -80 33 -86 23 -5 -7 -11 -67 -15
-134 -4 -67 -16 -228 -27 -357 -10 -129 -19 -252 -19 -272 0 -45 24 -73 75
-87 57 -15 80 -1 105 66 36 98 71 152 137 214 156 145 451 232 900 265 91 7
92 7 98 -17 3 -13 4 -584 3 -1269 -3 -1239 -3 -1245 -24 -1290 -23 -50 -62
-90 -143 -147 -72 -50 -81 -66 -56 -94 17 -18 28 -21 75 -16 245 22 565 368
775 837 53 117 115 283 249 660 116 329 235 558 401 774 33 43 69 90 80 105
25 34 -74 -55 -148 -133 -89 -93 -198 -231 -267 -336 -61 -93 -195 -357 -221
-435 -12 -35 -14 60 -17 699 -1 407 0 741 2 743 13 13 246 26 476 27 251 1
267 0 312 -21 25 -11 54 -32 63 -46 26 -41 29 -122 7 -207 -11 -41 -19 -76
-17 -78 1 -1 38 25 81 59 103 81 286 200 388 254 l81 43 33 104 c65 206 107
384 96 413 -8 21 -29 18 -99 -11z"/>
<path d="M6680 7516 c-558 -65 -1069 -293 -1424 -636 -294 -284 -479 -620
-563 -1020 -23 -108 -26 -150 -26 -305 -1 -149 3 -198 22 -285 47 -220 117
-370 290 -619 190 -274 246 -376 282 -522 37 -144 16 -279 -61 -392 -17 -25
-43 -55 -57 -67 l-26 -20 36 0 c100 0 353 102 506 204 238 159 408 348 485
538 40 101 43 98 -78 98 -239 0 -548 89 -760 219 -249 153 -399 358 -459 626
-30 134 -39 270 -27 383 18 152 28 176 29 64 2 -181 46 -383 113 -517 101
-201 274 -370 494 -482 345 -177 754 -217 1089 -107 204 67 331 149 503 322
130 132 135 132 90 18 -32 -84 -87 -157 -201 -268 -68 -67 -102 -108 -92 -108
33 0 159 42 241 80 198 91 333 221 382 368 13 38 17 116 21 397 6 337 7 352
28 396 32 64 69 96 175 149 50 25 101 58 111 73 19 24 19 27 3 51 -23 37 -66
35 -390 -18 -149 -25 -442 -70 -651 -102 -394 -58 -407 -62 -426 -111 -9 -25
4 -73 24 -85 19 -12 94 -9 207 8 89 13 111 14 144 2 75 -25 76 -34 79 -380 2
-269 0 -309 -16 -354 -35 -102 -113 -163 -262 -206 -69 -20 -101 -23 -235 -22
-138 1 -165 4 -245 28 -287 87 -489 287 -578 571 -81 261 -78 604 9 870 143
438 507 759 1002 884 176 45 439 52 577 16 89 -23 178 -70 219 -115 75 -83 87
-235 27 -345 -17 -32 -29 -60 -27 -63 16 -15 199 97 286 174 119 108 215 275
214 374 -2 127 -67 173 -317 221 -94 18 -155 22 -382 25 -181 2 -308 -2 -385
-10z"/>
<path d="M4485 5292 c-177 -379 -470 -763 -1004 -1321 -320 -333 -593 -582
-783 -712 -49 -33 -87 -66 -85 -72 6 -19 69 -58 115 -70 23 -6 42 -14 42 -18
0 -3 -19 -14 -41 -25 -60 -26 -175 -114 -224 -171 -119 -136 -139 -296 -45
-363 44 -31 144 -53 209 -45 71 8 171 42 291 97 l95 43 -77 5 c-93 7 -118 24
-118 81 0 21 9 62 20 91 21 57 98 180 116 185 5 2 38 -22 72 -52 l61 -56 27
55 c42 86 140 201 291 342 350 326 886 867 1061 1072 97 112 125 142 106 110
-49 -81 -330 -448 -454 -593 -99 -116 -309 -377 -386 -480 -71 -94 -204 -289
-204 -298 0 -4 18 -7 41 -7 l40 0 -25 -33 c-54 -71 -68 -135 -40 -189 19 -36
12 -37 229 26 164 48 347 91 515 121 52 10 109 21 125 25 l30 7 -30 8 c-16 4
-52 14 -80 23 -27 8 -106 30 -175 47 l-125 32 60 18 c52 16 69 16 128 7 101
-18 97 -20 97 42 0 111 84 339 291 788 66 144 146 321 176 391 l55 129 -23 31
c-159 213 -255 423 -300 657 -33 174 -28 170 -74 72z"/>
<path d="M6235 4315 c-24 -71 -78 -153 -155 -238 -34 -37 -59 -70 -56 -75 5
-9 64 -44 306 -182 175 -99 483 -303 600 -396 199 -158 352 -341 397 -474 24
-72 41 -82 90 -57 58 31 93 93 93 166 0 47 -54 158 -118 241 -28 36 -47 66
-43 68 4 1 40 -14 80 -33 67 -33 166 -65 198 -65 24 0 13 15 -31 41 -24 15
-75 63 -113 108 -118 139 -198 181 -344 181 l-77 0 -116 140 c-199 239 -443
470 -625 594 -29 20 -56 36 -60 36 -4 0 -15 -25 -26 -55z"/>
<path d="M5875 3881 c-22 -16 -85 -54 -140 -86 -55 -31 -106 -63 -114 -70 -10
-9 -14 -55 -15 -181 -2 -145 -5 -177 -24 -228 -43 -116 -115 -201 -207 -246
-32 -15 -84 -24 -221 -35 -624 -52 -1018 -128 -1481 -286 -420 -143 -723 -291
-960 -468 -97 -72 -220 -187 -211 -196 4 -4 61 21 128 55 490 248 1087 464
1626 589 346 80 685 133 1069 167 283 25 864 26 1100 1 345 -36 701 -97 976
-167 98 -25 401 -114 443 -130 65 -24 30 1 -71 53 -333 169 -898 311 -1443
362 -91 9 -189 18 -219 21 l-54 6 7 85 c4 46 16 112 26 146 40 132 35 163 -47
300 -31 51 -48 97 -67 176 -28 119 -42 161 -53 161 -5 -1 -26 -14 -48 -29z
m90 -668 c3 -32 9 -84 14 -115 l8 -58 -176 0 -176 0 55 23 c77 32 138 76 201
146 30 33 57 60 61 60 4 1 9 -25 13 -56z"/>
<path d="M5415 2784 c-22 -2 -98 -9 -170 -15 -466 -39 -936 -139 -1265 -270
-111 -44 -212 -92 -155 -74 84 27 437 111 605 144 551 107 974 146 1580 145
404 0 525 -6 785 -39 83 -10 -70 24 -220 50 -294 49 -383 56 -760 60 -198 1
-378 1 -400 -1z"/>
</g>
</svg>
