<svg xmlns="http://www.w3.org/2000/svg" viewBox="213 104 199 199" preserveAspectRatio="xMidYMid meet">
  <defs>
    <linearGradient id="redGrad" x1="228" y1="122" x2="285" y2="282" gradientUnits="userSpaceOnUse">
      <stop offset="0%" stop-color="#c5142b"/>
      <stop offset="100%" stop-color="#b10f25"/>
    </linearGradient>
    <linearGradient id="pinkGrad" x1="327" y1="122" x2="280" y2="286" gradientUnits="userSpaceOnUse">
      <stop offset="0%" stop-color="#efb3c0"/>
      <stop offset="100%" stop-color="#eba8ba"/>
    </linearGradient>
  </defs>
  <path d="M 250.2,282.5 L 272.816,170.5 L 219.0,170.5 L 219.0,169.0 L 220.5,163.0 L 226.94,130.0 C 227.5,124.0 232.0,120.5 238.0,120.5 L 343.0,120.5 C 331.0,120.5 316.0,138.0 304.5,163.0 C 293.0,188.0 293.0,219.5 286.5,246.0 C 280.0,272.5 264.2,273.5 250.2,282.5 Z" fill="url(#redGrad)"/>
  <path d="M 298.0,286.5 L 256.0,286.5 C 265.733,283.049 288.187,278.825 295.241,248.144 C 301.946,220.104 302.185,189.139 312.676,166.761 C 323.167,144.383 341.575,120.500 359.000,120.500 L 406.0,120.5 L 399.5,153.0 L 397.4,163.5 C 396.2,168.8 392.8,170.5 389.5,170.5 L 340.803,170.5 L 320.5,271.0 L 318.7,280.0 C 318.1,283.5 314.5,286.5 311.0,286.5 L 298.0,286.5 Z" fill="url(#pinkGrad)"/>
</svg>